<?xml version="1.0" encoding="utf-8"?>
<!-- Generator: Adobe Illustrator 24.1.1, SVG Export Plug-In . SVG Version: 6.00 Build 0)  -->
<svg version="1.1" id="Layer_1" xmlns="http://www.w3.org/2000/svg" xmlns:xlink="http://www.w3.org/1999/xlink" x="0px" y="0px"
	 viewBox="0 0 512 512" style="enable-background:new 0 0 512 512;" xml:space="preserve">
<style type="text/css">
	.st0{fill:#555555;}
</style>
<g>
	<path class="st0" d="M256,0c136.8,0,256,112.9,256,243.2c0,128.1-116.5,228.9-256,228.9c-30.1,0-59.8-4.8-87.8-14
		c-11.9,11.5-15.9,15.4-41.1,39.7c-18.2,13.7-35.3,18.4-50.6,9.7c-15.4-8.7-20-25.7-16.9-48l10.2-59.3C25.4,358.5,0,303.1,0,243.2
		C0,112.9,119.2,0,256,0z M256,35.8c-117.4,0-220.2,97.3-220.2,207.4c0,52.3,23.4,100.5,64.5,136.4l0.5,0.4l7.6,6.6l-1.7,9.9
		c-4.7,27.1-4.7,27.1-11.8,68.5c-1.2,8.2-0.6,11-0.8,11.3c0.2-0.3,3.7-1.4,9.6-5.7l55.5-53.9l10.6,4c27.2,10.2,56.4,15.5,86,15.5
		c120.7,0,220.2-86,220.2-193.1C476.2,133.1,373.4,35.8,256,35.8z M133.8,200c21.2,0,38.4,17.2,38.4,38.4
		c0,21.2-17.2,38.4-38.4,38.4s-38.4-17.2-38.4-38.4C95.5,217.2,112.6,200,133.8,200z M261.7,200c21.2,0,38.4,17.2,38.4,38.4
		c0,21.2-17.2,38.4-38.4,38.4s-38.4-17.2-38.4-38.4C223.4,217.2,240.6,200,261.7,200z M389.7,200c21.2,0,38.4,17.2,38.4,38.4
		c0,21.2-17.2,38.4-38.4,38.4c-21.2,0-38.4-17.2-38.4-38.4C351.3,217.2,368.5,200,389.7,200z"/>
</g>
</svg>
